<svg xmlns="http://www.w3.org/2000/svg" viewBox="0 0 1487.52 304"><defs><style>.cls-1{fill:#1f1e1e;}.cls-2,.cls-3{fill:#5fe548;}.cls-3{font-size:215px;stroke:#5fe548;stroke-miterlimit:10;font-family:SpaceMono-Regular, Space Mono;}.cls-4{fill:#ffce00;stroke:#ffce00;font-size:141.79px;letter-spacing:0em;}</style></defs><title>Asset 1</title><g id="Layer_2" data-name="Layer 2"><g id="Layer_1-2" data-name="Layer 1"><rect id="BG" class="cls-1" width="1487.52" height="304" rx="46"/><path class="cls-2" d="M869,205H971.52v15.84H869ZM275.7,158.62h44V206h-11V194.16H307a20.35,20.35,0,0,1-8.46,10,25.92,25.92,0,0,1-14.1,3.8q-15.93,0-25-10.29t-9.09-30v-22q0-19.17,9.16-29.75T285,105.33A37.85,37.85,0,0,1,300,108.08a30.2,30.2,0,0,1,10.86,7.61,32.84,32.84,0,0,1,6.62,11.42,42.68,42.68,0,0,1,2.26,14v1.69H307.85v-1.69a32.65,32.65,0,0,0-1.34-9.31,23.48,23.48,0,0,0-4.09-8,19.44,19.44,0,0,0-7.05-5.5A24,24,0,0,0,285,116.32q-11.43,0-17.14,8.32t-5.71,21.86v20.3q0,14.52,5.71,22.35T285.29,197q10.57,0,16.56-6.77t6-18.9v-1.69H275.7ZM402.32,206H390.47V173a8.39,8.39,0,0,0-1.69-5.64q-1.69-2-5.92-2H352.12V206H340.28V107.3h35.25a36.53,36.53,0,0,1,13.25,2.19,27,27,0,0,1,9.38,5.85,24.08,24.08,0,0,1,5.64,8.53,27.76,27.76,0,0,1,1.9,10.22v4.23a22.62,22.62,0,0,1-3,11,20,20,0,0,1-9.38,8.46v1.69a11,11,0,0,1,6.63,3.38q2.4,2.68,2.4,7.62Zm-50.2-51.61h22q10,0,14.87-4.3t4.87-12.62v-2.53A15.78,15.78,0,0,0,389,122.88q-4.86-4.57-14.87-4.58h-22Zm83.61-47.09v65.42q0,12,5.57,18.12T457.73,197q10.86,0,16.43-6.14t5.57-18.12V107.3h11.84v65.42q0,17.21-9,26.23t-24.82,9q-15.8,0-24.82-9t-9-26.23V107.3Zm75.44,0H543.6q18.33,0,26.79,8.74T578.85,144v25.38q0,19.17-8.46,27.92T543.6,206H511.17V194.86h8.46V118.3h-8.46ZM541.91,195a43.42,43.42,0,0,0,11.21-1.27,17.35,17.35,0,0,0,7.82-4.3,18.07,18.07,0,0,0,4.58-8.11A46.53,46.53,0,0,0,567,168.49V144.81A46.53,46.53,0,0,0,565.52,132a18.07,18.07,0,0,0-4.58-8.11,17.35,17.35,0,0,0-7.82-4.3,43.42,43.42,0,0,0-11.21-1.27H531.47V195Zm58.51-87.7h59.79v11H612.27V151h47.09v11H612.27v33h48.78v11H600.42Zm96.87,58.09V206H685.45V107.3H720.7A36.53,36.53,0,0,1,734,109.49a27.13,27.13,0,0,1,9.38,5.85,24.08,24.08,0,0,1,5.64,8.53,28,28,0,0,1,1.9,10.22v4.23a28.54,28.54,0,0,1-1.9,10.29,24.35,24.35,0,0,1-5.71,8.67,27.39,27.39,0,0,1-9.45,5.93,36.31,36.31,0,0,1-13.11,2.18Zm0-11h22q19.76,0,19.75-16.92v-2.53a15.81,15.81,0,0,0-4.87-12.06q-4.86-4.57-14.88-4.58h-22ZM767.79,195h8.46V118.3h-8.46v-11h39.9a36.57,36.57,0,0,1,12.48,2,27.71,27.71,0,0,1,9.17,5.36,21.83,21.83,0,0,1,5.64,8.11,27.28,27.28,0,0,1,1.9,10.22v1.69a21.08,21.08,0,0,1-1.27,7.48,20.79,20.79,0,0,1-3.52,6.06,22.59,22.59,0,0,1-5.29,4.58,24.91,24.91,0,0,1-6.56,2.89v1.69a23.85,23.85,0,0,1,11.85,7.55,20.16,20.16,0,0,1,4.79,13.61v1.69a27.28,27.28,0,0,1-1.9,10.22,22.49,22.49,0,0,1-5.64,8.18,27,27,0,0,1-9.17,5.43,36.57,36.57,0,0,1-12.48,2h-39.9Zm20.3,0h18.76q8.31,0,13.53-4.16t5.22-11.49v-.84q0-7.62-4.94-12.06T807.27,162H788.09Zm0-44h19.18q8.46,0,13.39-4.37t4.94-12v-.84a13.72,13.72,0,0,0-5.22-11.35q-5.22-4.17-13.53-4.16H788.09ZM178.8,95.08a48.73,48.73,0,0,1,14,4.51,39,39,0,0,1,10.67,7.81,34.68,34.68,0,0,1,6.82,10.23,29.45,29.45,0,0,1,2.42,11.77v4H196v-2.64a17.39,17.39,0,0,0-4.73-12.32,25.13,25.13,0,0,0-12.43-7v31.46q18.25,2.2,27.83,10t9.57,21.45v1.32q0,14.75-10.23,23.65t-27.17,10v13.42H163V208.82a50.32,50.32,0,0,1-16.61-5.39,40.23,40.23,0,0,1-11.44-9.24,37.33,37.33,0,0,1-6.71-11.66,37.9,37.9,0,0,1-2.2-12.65V164.6h16.72v2.64q0,10.56,5.28,16.94t15,8.58V156.9q-16.5-2.21-25.19-9.57t-8.69-20.57v-1.32A27,27,0,0,1,131.83,113a29.17,29.17,0,0,1,7.37-9.24A36.81,36.81,0,0,1,150,97.61a50.71,50.71,0,0,1,13-3V81H178.8Zm20.44,80.86q0-7.69-4.84-11.44T179,159v34.76q9.47-1.09,14.85-5.72A15.18,15.18,0,0,0,199.24,175.94ZM146,126a14,14,0,0,0,3.63,10q3.63,3.85,13.09,5.61V111a25.52,25.52,0,0,0-11.88,4.84A12.11,12.11,0,0,0,146,126Z"/><text class="cls-3" transform="translate(861.71 206.17)"> <tspan class="cls-4" x="131.58" y="0">FEST</tspan></text></g></g></svg>